<svg xmlns="http://www.w3.org/2000/svg" viewBox="0 0 237.2 500"><defs><style>.cls-1{isolation:isolate;}.cls-2{fill:#ffac8e;}.cls-3{opacity:0.5;mix-blend-mode:multiply;}</style></defs><g class="cls-1"><g id="Layer_2" data-name="Layer 2"><g id="Paper"><path class="cls-2" d="M236.94,134c-1.35-5.66-8.07-8.66-13.84-7.85,0,0-15.93.66-24.87,12.91a159.88,159.88,0,0,0-14.92,25.68l-12.55,11.73-2.5-7q-1.92-10.9-3.58-21.95a813,813,0,0,1-5.62-110.26c.1-5.13.23-10.39-1.42-15.25s-5.5-9.33-10.56-10.17c-5.33-.88-10.65,2.49-13.62,7s-4.06,10-5,15.3C123.7,63,122.86,92.38,122,121.65c-3.09-31.23-7.16-64.25-10.26-95.48-.58-5.86-1.21-11.88-4-17.09s-8.13-9.46-14-9c-5.45.38-10,4.7-12.23,9.69s-2.55,10.59-2.77,16c-1.28,32.91.44,65.86,2.62,98.73C77.37,98.9,72.16,73.38,68.1,47.78c-.8-5-1.65-10.23-4.27-14.61s-7.45-7.86-12.52-7.31C46.7,26.35,42.91,30,41,34.27s-2.18,9-2.34,13.62c-1,28.71,2.66,57.35,6.28,85.84A409.65,409.65,0,0,0,23.71,80.15c-1.8-3.78-3.74-7.64-6.93-10.35s-7.94-4-11.63-2C-.29,70.7-.45,78.34.36,84.46a249,249,0,0,0,19.28,68.46s1.61,30.06,8.2,57h0c5.34,17.2,13,33.47,23.88,45.27l-.63,11.16L38,498l107.8,1.5,33.9.47L161.52,253.31c4.86-2.41,42.08-49.7,46.26-58,3.75-7.39,23.88-44.7,27.54-52.46.11-.22.21-.45.32-.67l.33-.71h0A11.82,11.82,0,0,0,236.94,134Z"/><g class="cls-3"><path class="cls-2" d="M113.42,223.87a2,2,0,0,1-.71-2.68c15.27-26.3,44.48-37,45.71-37.42a2,2,0,0,1,1.33,3.69c-.29.1-29.11,10.67-43.65,35.7A2,2,0,0,1,113.42,223.87Z"/></g><g class="cls-3"><path class="cls-2" d="M38.27,139.42a2,2,0,0,1,.33-3.55c2.42-.85,59.62-20.82,91.62-18.51a2,2,0,1,1-.28,3.91c-31.19-2.25-89.45,18.1-90,18.3A1.93,1.93,0,0,1,38.27,139.42Z"/></g></g></g></g></svg>