<svg xmlns="http://www.w3.org/2000/svg" viewBox="0 0 1353.79 1064.46"><defs><style>.cls-1{isolation:isolate;}.cls-2{fill:#ffffd0;}.cls-3{fill:#fff;}.cls-4,.cls-6{fill:#ffac8e;}.cls-5,.cls-6{opacity:0.5;mix-blend-mode:multiply;}.cls-7{fill:#f2be22;}.cls-8{fill:#f29727;}.cls-9{fill:#f24c3d;}</style></defs><g class="cls-1"><g id="Layer_2" data-name="Layer 2"><g id="Layer_1-2" data-name="Layer 1"><path class="cls-2" d="M294.87,1032.38c-1.34.06-9.07.11-21,.16C171,1033,105.23,923.24,154,832.75l.05-.1h0C69.29,872-22.13,792.68,4.8,703.21l18.68-62.08,4.38-15.32c2.32-9.36,4.72-21.62,7-35.58,3.52-22,6-40.31,7.42-54.51l.1-.93,2.76-25.56a133.43,133.43,0,0,1,96-114h0c2.07-.59,4.5-1.24,7.68-2.07l.13,0c3.67-1,8.58-2.1,16.42-3.87,9.21-2.07,18.37-3.79,27.21-5.1,6.75-1,14.3-2,22.49-3.05a249.26,249.26,0,0,1,30.88-2c4.72,0,9.43.15,14,.45q5.18.35,10.25.89a143,143,0,0,1,.53-29.67,141.5,141.5,0,0,1,19.41-56A146.23,146.23,0,0,1,324.69,225a143.8,143.8,0,0,1,123.69-83.76c4.38-1.7,8.86-3.19,13.41-4.46a144,144,0,0,1,15.06-3.33,167.49,167.49,0,0,1,15.69-22.23A157.47,157.47,0,0,1,524.78,82a171,171,0,0,1,71.36-47.48A166.22,166.22,0,0,1,685,7.06,158.51,158.51,0,0,1,878.25,98c2.76-.16,5.53-.25,8.31-.25a142.66,142.66,0,0,1,81.51,25.54q6.88,2,13.59,4.68a142.45,142.45,0,0,1,65.16,52.51A148.12,148.12,0,0,1,1072,256.36c.24,5.05.23,10,0,14.83a352,352,0,0,1-13,76.14,144.28,144.28,0,0,1,5.52,38.26l125-34.46c67.46-18.59,127.55,47.13,103,112.66h0l8.54,4.33c62.92,31.9,71.22,118.44,15.51,161.72h0c31.65,45.85,12.15,109.23-39.81,129.36l-60.41,23.39-25.17,49.53c-7,13.84-9.69,20.14-10.36,21.82l-2.29,7.25c1,53.51-25.54,104-73.27,135.16-38.6,25.28-86.81,36.55-156.26,36.55H853l-186.45,23.91a17.64,17.64,0,0,1-18.63-24h0c-3.65.07-154.65.1-154.65.1L322,1064.05a24.12,24.12,0,0,1-27.1-31.67Z"/><path class="cls-3" d="M994.37,235.9c-.86-17.47-10.77-32.05-25.77-38A39.61,39.61,0,0,0,953.74,195a42.1,42.1,0,0,0-9.19,1c-6.46-12.18-18-20.78-31.43-22.61a40.93,40.93,0,0,0-5.43-.37c-13.52,0-27,6.89-36.08,18.37-6.51,8.23-9.66,17-12.11,24.59-4.82,15-11.61,38.5-17.08,57.37-1,3.6-2.12,7.32-3.16,10.9a62.3,62.3,0,0,0-25.58,10.6c12.17-17.74,15.22-26.78,16.43-30.37,2.48-7.38,8.29-24.64-9.7-106.59A51.32,51.32,0,0,0,796.63,125L793,109.78a57,57,0,0,0-81.32-38A72.81,72.81,0,0,0,705,75.68a62.32,62.32,0,0,0-16.79-2.31c-12.55,0-30.18,3.88-47.7,20.63-24.22,2.65-42.46,18.07-52.34,35.36a52.1,52.1,0,0,0-23.65,16.44c-11.47,13.73-17.34,33.14-14.61,48.29,3.09,17.14,11.19,34.55,26,55.77a233.08,233.08,0,0,0,8.09,32,41.38,41.38,0,0,0-4.44,2.29,65.41,65.41,0,0,0-22.11,20.62c-11-19.86-20.92-39.66-29.54-59.15l-.09-.2c-2.58-5.84-6.11-13.83-13.08-21.12a44.59,44.59,0,0,0-31.87-14,39.87,39.87,0,0,0-10.71,1.46,40.72,40.72,0,0,0-20,12.88A45.68,45.68,0,0,0,434,220.7a41.33,41.33,0,0,0-20,5.12c-13.3,7.37-21.58,21.79-21.91,37.92a39.1,39.1,0,0,0-5.91,2.92c-12.51,7.54-20.08,21.85-19.78,37.35a52.88,52.88,0,0,0,2.4,14.57,37.38,37.38,0,0,0-14.47,11.65c-4.94,6.62-14.71,24.75,1.41,50a271.24,271.24,0,0,0,46.7,55.32c5.1,9,17,29.19,31.07,46.71l23.2,22.05a130.64,130.64,0,0,0,16.32,11l95.06,238.1,132.82-59.71-.9,2.72,193.11,54.62,50-262.31c17.44-13.72,24.07-22.07,27.61-27.39,3.78-5.7,6.54-13,8.68-22.92l.19-.91c3.66-17.26,5.45-41.76,6.31-59.28l0-.52c0-.41,0-.82,0-1.22l.05-.94c.57-12.38-4.36-23.08-11.69-31.27l2.28-10.71-.26-.06c5.52-26.87,12-58,15.07-70.71C991.74,261.3,994.94,247.4,994.37,235.9Z"/><path class="cls-4" d="M609.71,310.79c-3.53-4.44-10.7-4.31-15.46-1.23,0,0-13.79,7.14-16.64,21.64A155.77,155.77,0,0,0,575,360l-6.25,15.52-5.08-5.13q-6.2-8.85-12.2-17.91a793.37,793.37,0,0,1-50.36-95c-2-4.58-4.07-9.28-7.53-12.89s-8.69-6-13.51-4.63c-5.07,1.42-8.38,6.58-9.15,11.79s.52,10.47,1.93,15.54c7.65,27.48,19,53.77,30.32,80-15.59-26.3-32.78-53.78-48.37-80.08-2.92-4.93-6-10-10.52-13.46s-11.08-5-16.09-2.23c-4.66,2.58-6.9,8.27-6.81,13.59s2.11,10.4,4.17,15.31c12.42,29.59,27.5,58,42.95,86.1-14.13-20.93-29.23-41.31-43.36-62.25-2.79-4.12-5.67-8.35-9.78-11.14s-9.81-3.87-14.07-1.3c-3.87,2.33-5.69,7.14-5.6,11.66s1.77,8.83,3.54,13c11,25.74,26,49.54,40.88,73.21a398,398,0,0,0-40.83-38.56c-3.15-2.59-6.45-5.2-10.38-6.28s-8.67-.26-11.11,3c-3.6,4.82-.59,11.63,2.65,16.71a242.52,242.52,0,0,0,45.2,52.5s13.8,25.88,30.7,46.93v0c11.8,13,25.25,24.2,39.72,30.14l4,10.11,83.83,210,95.79-43.06,30.13-13.55L592.25,447.22c3.3-4.13,16.69-61.21,17-70.23.26-8.07,2.67-49.31,2.71-57.66,0-.24,0-.48,0-.72v-.76h0A11.62,11.62,0,0,0,609.71,310.79Z"/><g class="cls-5"><path class="cls-4" d="M537.66,441a1.91,1.91,0,0,1-1.73-2.07c2.66-29.51,24.05-51,25-51.86a1.91,1.91,0,1,1,2.68,2.71c-.21.22-21.3,21.41-23.83,49.49A1.92,1.92,0,0,1,537.66,441Z"/></g><g class="cls-5"><path class="cls-4" d="M436.54,397.42a1.91,1.91,0,0,1-1.16-3.27c1.78-1.75,44.06-42.94,73.27-54.07a1.91,1.91,0,0,1,1.36,3.57c-28.46,10.85-71.53,52.8-72,53.23A2,2,0,0,1,436.54,397.42Z"/></g><path class="cls-4" d="M791.76,164.24a21.81,21.81,0,0,0-20-17.12l-7.28-30.54C760.31,99.18,741,89.78,725,97.92a55,55,0,0,0-15.43,12.36s-27.21-23.83-56.1,13c-27.58-3.78-44,21.13-44.3,34.14-20.47-6.9-32.37,20.53-30.41,31.42,2.17,12,8.1,26.43,25.08,49.61,0,0,5.35,48.53,33.64,82.86L621.22,609.7l176.3,2.46L774.41,298.43c10.28-12.8,23.79-31.06,27.9-43.25C807.32,240.27,797.49,190.31,791.76,164.24Z"/><path class="cls-6" d="M766,145.24l-34.91,2.12-9.29-.39a143.84,143.84,0,0,1-4.63-16.76c-2.35-10.23-3.52-14.44-4.37-17.18a2.22,2.22,0,0,0-4.24,1.31c.78,2.51,2,6.71,4.3,16.85,1.83,8,3.26,12.81,4.18,15.59l-14.38-.59a9.62,9.62,0,0,0-10,8.61c-1,9.55-.39,32.47,25.27,38.6,3.16.75,6.32,1.33,9.42,1.82l2.77,7.34a2,2,0,0,0,.46.71,2.16,2.16,0,0,0-1,1.5,27.57,27.57,0,0,1-16.63,20.74,20.16,20.16,0,0,1-20.28-2.64c-12-20.44-28.66-60-32.47-72.18-2.61-8.35-3.75-18.72-4.21-24.16a2.22,2.22,0,0,0-4.43.36c.49,5.64,1.66,16.36,4.43,25.13,3.82,12.23,20.41,51.65,32.54,72.51C685.37,232.09,678,238,668.94,240c-7.76,1.73-15.09.06-19.69-4.4-1.79-2.64-19.79-29.67-26.12-44.08A268.67,268.67,0,0,1,612,159.1a2.2,2.2,0,1,0-4.24,1.21,265.59,265.59,0,0,0,11.38,33c6,13.82,21.88,37.85,25.79,43.72-2.71,3.32-7.86,5.93-13.69,6.84-7.53,1.18-14.71-.58-19.66-4.82a2.21,2.21,0,1,0-2.87,3.36,24.42,24.42,0,0,0,7.53,4.4,30.73,30.73,0,0,0,15.68,1.43c6.69-1,12.59-4,16-7.92,5.64,4.37,13.69,5.87,22,4,9.84-2.18,18.06-8.41,22.07-16.56a24.66,24.66,0,0,0,22.59,1.86,32,32,0,0,0,18.75-21.1h0a22.41,22.41,0,0,0,11.74.59c-6.2,4.11-25.07,17.67-34.63,35.54a2.25,2.25,0,0,0,.92,3c.09,0,.19.09.29.13a2.23,2.23,0,0,0,2.7-1.05c10.7-20,34.79-35,35-35.14a2.09,2.09,0,0,0,1-1.73c.46-6.81,3.52-16,3.56-16.07a2.25,2.25,0,0,0-2.58-2.87c-8.31,1.79-20.15,1.11-32.5-1.83C697.43,184,696,165.68,697,155.22a5.24,5.24,0,0,1,5.45-4.63l28.62,1.21,35.14-2.12a2.24,2.24,0,0,0,2.09-2.35A2.21,2.21,0,0,0,766,145.24Zm-17.24,50.63c-.65,2.19-1.4,5.19-2,8.25-5.54,1.76-11.28,1.18-13.37-.55a2.2,2.2,0,0,0,.85-2.58l-2-5.15A74.87,74.87,0,0,0,748.72,195.87Z"/><path class="cls-4" d="M946.22,445.17c-5.57,8.39-19.51,19.45-29.87,27.06L870.27,714.15l-31.79-9L737.43,676.57l70.75-214.75c-14.44-31.69-8.63-69.48-8.63-69.48-5.71-14.69-8.19-25-8.89-33.19a56.05,56.05,0,0,1,0-9.42,19.94,19.94,0,0,1,3.36-8.38v0c5.22-8.14,15.73-16,26-9.21a15.21,15.21,0,0,1,.93-2.41,23.6,23.6,0,0,1,2.71-4.27c.24-.31.48-.61.74-.89a.77.77,0,0,1,.19-.21c7-8.17,20.69-15.41,35.85-9,1.09-.82,17.79-61.56,27-90.27,1.74-5.38,3.63-10.87,7.19-15.36s9.19-7.87,14.57-7.14c5.83.8,9.87,6.13,11.09,11.85s.13,11.85-.93,17.77c-5,27.35-16.82,96.1-16.82,96.1.42-.26,20-61.25,30.86-84.8,2.35-5.11,4.93-10.31,9.07-14.2s10.28-6.12,15.19-4.14c4.68,1.86,7.17,7.07,7.42,12.24s-1,13.6-2.24,18.74c-5.14,21.53-18.68,88.22-20.88,99.1h0c-.21,1-.32,1.5-.32,1.5a5.64,5.64,0,0,1,.64.25c7.1,2.62,14.71,9.91,14.37,17.3,0,.84-.09,1.72-.12,2.61-.76,15.44-2.39,39-5.71,54.63v0C949.58,437.56,948,442.43,946.22,445.17Z"/><path class="cls-6" d="M859.91,337.34a69.87,69.87,0,0,1,.49-10.73c.14-1.42.33-2.79.53-4,.21-1.69.48-3.18.69-4.36a1.74,1.74,0,0,0-3.42-.63c-.24,1.36-.53,3.14-.82,5.12-.16,1.28-.34,2.63-.48,4.05a75.13,75.13,0,0,0-.44,10.74c.4,10,5,43.19,9.91,61.42-3.9,5.09-10.69,8.05-17.93,7.75-6.2-.26-11.43-3-14-7.32-.79-2.38-9-26.44-10.82-38.62a210.77,210.77,0,0,1-1.88-26.8,1.72,1.72,0,0,0-1.74-1.71,1.75,1.75,0,0,0-1.71,1.76,210.51,210.51,0,0,0,1.92,27.26c1.76,11.65,8.87,33.06,10.64,38.29-2.71,1.94-7.14,2.89-11.74,2.4-5.94-.64-11-3.42-13.89-7.66a1.76,1.76,0,0,0-2.42-.44,1.73,1.73,0,0,0-.43,2.4,19.19,19.19,0,0,0,4.8,4.88,24.1,24.1,0,0,0,11.57,4.26c5.27.57,10.33-.48,13.74-2.74,3.4,4.45,9.16,7.21,15.82,7.49,7.87.34,15.34-2.71,20-8.06a6.89,6.89,0,0,0,1.53-3.55C864.91,380.59,860.32,347.33,859.91,337.34Z"/><path class="cls-6" d="M939,354.38l-2.58-.54-19.86-4-6.95-2.18L906,346.53l-10.73-3.35a7.53,7.53,0,0,0-9.33,4.47c-2.65,7-6.88,24.48,11.28,34.31,2.27,1.22,4.51,2.29,6.76,3.29l3.62,1.47a60.94,60.94,0,0,0,12.44,3.37c-.93,1.51-2.1,3.61-3.17,5.83l-2.27,3.44a102.91,102.91,0,0,0-13.27,5.55c-.09,0-.15.07-.24.1s0,0,0,0c-6.58,3.34-14.08,8-19.82,14.19a1.72,1.72,0,0,0-.46,1.41,1.58,1.58,0,0,0,.52,1l.2.13a1.7,1.7,0,0,0,2.25-.22,61.85,61.85,0,0,1,14.55-11.08,102.1,102.1,0,0,1,19-8.4,1.68,1.68,0,0,0,1.14-1.09,11.77,11.77,0,0,1,.59-1.51,65.24,65.24,0,0,1,5.36-9.93,1.67,1.67,0,0,0,.09-1.74,1.7,1.7,0,0,0-1.44-.94c-6.67-.34-15.48-3.26-24.23-8-15.19-8.22-12.58-22.37-9.68-30.05a4.12,4.12,0,0,1,5-2.4l21.41,6.72,20.16,4.08,2.48.5a1.72,1.72,0,1,0,.67-3.38Z"/><g class="cls-5"><path class="cls-6" d="M864.07,323.7a1.54,1.54,0,0,1,1.81-2.13c1.94.54,47.72,13.38,67.27,29.25a1.54,1.54,0,1,1-1.94,2.39c-19.05-15.46-65.69-28.55-66.16-28.68A1.52,1.52,0,0,1,864.07,323.7Z"/></g><path class="cls-3" d="M1294,559.31l-86.68-43.94,18.21-48.63-61.84,18.82c-2.37.56-6.59,1.43-13.85,2.6a102.62,102.62,0,0,1-16.28,1.38h-26.75l-2.9,31.34a84.87,84.87,0,0,0-26.33-4.22c-14.56,0-29.36,3.76-44,11.18a114.5,114.5,0,0,0-25.14,17.27,72.74,72.74,0,0,0-28.59-22.68l-.4-.17a71.18,71.18,0,0,0-28.1-5.83,73.8,73.8,0,0,0-21.88,3.39,43.54,43.54,0,0,0-6.92-15.23c-4.64-6.51-13.44-15-29-18.67a137.74,137.74,0,0,0-22.19-3.21c-2.48-.17-5.07-.25-7.68-.25a150.85,150.85,0,0,0-19.18,1.3c-7.9,1-15.19,2-21.68,3-6.93,1-14.12,2.41-21.35,4.07-6.79,1.57-11.35,2.66-14,3.34-2.13.55-3.84,1-5.1,1.3l-20,5L670.3,510.69l-99,17.75A73.58,73.58,0,0,0,560,522.56a90,90,0,0,0-70.14,2,88,88,0,0,0-25.35,17.82l-.24-.19a136.33,136.33,0,0,0-12.55-8.66,59.06,59.06,0,0,0-21.13-7.41l2.23-14.76-45,6.76-.71.14-1.92.35,1.55-4.72-67.46,4.82-1.23-.27-.9-.15a95.8,95.8,0,0,0-14.79-1l-2.58,0c-5.89.1-12.41.54-19.38,1.3a88.27,88.27,0,0,0-10.66,1.87,43.46,43.46,0,0,0-7.06-15.85c-4.66-6.53-13.51-15.07-29.19-18.69a142.34,142.34,0,0,0-22.38-3.2c-2.49-.16-5.1-.24-7.73-.24a156.51,156.51,0,0,0-19.4,1.29c-8.12,1-15.52,2-22,3-6.89,1-14.1,2.39-21.44,4-7,1.58-11.7,2.67-14.38,3.37s-4.48,1.18-5.8,1.56l-19,5.42L96.2,548.85c-1.78,17.93-4.83,40.44-9.06,66.89-3.18,19.86-6.59,37-10.17,51L71.41,686.2,53.82,744.63l55.06-28.31,16.39-5.5c1.48-.35,3-.71,4.65-1.07,3.53-.77,7.81-1.54,12.72-2.27,4.73-.71,9.43-1.21,14-1.49l25.52-1.62,5.59-75.55.59-.2a76.73,76.73,0,0,0,.66,14.62,176,176,0,0,0,4.25,20.93,47.91,47.91,0,0,0,19.66,27.66,99.39,99.39,0,0,0,14.69,8.26q1.68.75,3.42,1.38l-12.53,22.31,68.17-12.17c3.08-.55,7.17-1.16,12.18-1.82-.06.18-.13.37-.2.54l-12.4,31.35c-3.88,1.23-7.68,2.55-11.33,4a95,95,0,0,0-27.57,16.69,72.78,72.78,0,0,0-20.37,28.36c-6,15.21-8,28.75-6.11,41.37a67.05,67.05,0,0,0,4.3,15.9l-.34-.11-4.65,35.31c-.28,2.13-1.28,7-4.79,15.43C211,909,209,913.15,208.15,914.73q-2.84,5.32-4.58,8.53l-23.36,43.27h49.18c57.89,0,96-8.2,119.82-25.77a77.69,77.69,0,0,0,30.66,20.62c10.13,3.87,21.62,5.75,35.11,5.75,2.27,0,4.61-.06,7-.17l-2.74,7.85,45.53-8.28H517c26.34,0,48.15-1.76,66.11-5.39l-3.44,5.39h53.5c51.53,0,85.75-6.71,107.62-21.07q2.24-1.47,4.3-3a73,73,0,0,0,53.76,24.22,73.23,73.23,0,0,0,20.59-3l-3.57,9,112.37-14.41-5.3,8.31h53.5c51.52,0,85.74-6.71,107.61-21.07,22.94-15,31.88-37.77,25.4-62.15l10.39-32.88c1.73-5.48,6.3-16.94,18.25-40.46l20.52-40.38L1103,766.88c-2.74-.14-5.7-.2-8.81-.2l30.81-53.5c5.28-1,11.13-1.91,17.45-2.75,4.24-.56,6.6-.71,7.73-.74l5.57,1.3,4.45,14.49,107.47-41.62-46.77-67.74Z"/><path class="cls-7" d="M154.75,676.71q-8,.51-16.44,1.76t-14.68,2.63q-6.27,1.38-11.29,2.76c-3.34.92-6,1.67-7.9,2.26a17.45,17.45,0,0,0-2.64.88q7.78-25.85,14.31-66.62t9.28-68.63l3-27.85q1.75-.51,5.15-1.38T147,519.38q10-2.26,19.32-3.64t21.33-2.89A114.88,114.88,0,0,1,209.2,512a111,111,0,0,1,17.69,2.51q8.15,1.88,11.92,7.15t2.26,13.3a78.89,78.89,0,0,1-8,23.58,71.1,71.1,0,0,1-13,17.82,111.32,111.32,0,0,1-15.56,12.55,83.59,83.59,0,0,1-16.06,8.53q-7.77,3-14.17,4.89A72.19,72.19,0,0,1,164,604.69l-4,.76Zm8.78-123-2.76,30.11,4-1.38q2.51-.88,8.78-3.64a105,105,0,0,0,11.16-5.65,50.65,50.65,0,0,0,9-6.77q4.14-3.88,4.39-7.66c.33-3.84-2.38-6.18-8.16-7a50.94,50.94,0,0,0-17.44.5Z"/><path class="cls-7" d="M317.09,548.24l28.11-2q-6.78,20.58-12.3,53.57t-7.53,55.33l-2,22.58q-10.29.75-22.59,2.26t-19.32,2.76l-7,1.26,8-14.31c-.67.17-1.59.47-2.76.88s-3.52,1.13-7,2.13a58.48,58.48,0,0,1-9.91,2q-4.65.51-11.54.63a27.31,27.31,0,0,1-11.67-2,71.88,71.88,0,0,1-10.41-5.9,18.65,18.65,0,0,1-7.66-11A147.2,147.2,0,0,1,218,639q-1.5-10.17,2-25a98,98,0,0,1,10-30q7-12.91,15.81-19.82A84.16,84.16,0,0,1,264.53,553a66.8,66.8,0,0,1,19.07-5.27q9.15-1,16.68-1.13a74.31,74.31,0,0,1,12.3.63ZM287,645.09q4.51-10,7.15-25.84t3.39-26.6l.5-11q-1-.5-2.88-1.26a28.29,28.29,0,0,0-7.15-1.13,24.81,24.81,0,0,0-10.17,1.38q-4.89,1.77-11,8.29t-10.91,17.56q-6,15.56-5.15,24.34t6.65,12a29.47,29.47,0,0,0,12.42,3.77,45.33,45.33,0,0,0,11.92-.5Z"/><path class="cls-7" d="M396.64,554.51a15.61,15.61,0,0,0,2.51-.25q1.5-.25,6.52-.63a57.54,57.54,0,0,1,9.29,0q4.26.38,10.79,1.38a29.94,29.94,0,0,1,10.91,3.64,104.59,104.59,0,0,1,9.79,6.77,21,21,0,0,1,7.4,10.54,132.27,132.27,0,0,1,3.64,15.18q1.62,8.79-1.38,20.83a99.58,99.58,0,0,1-8.28,26.22,73.75,73.75,0,0,1-12.8,19.2,105.58,105.58,0,0,1-14.81,12.8A62.85,62.85,0,0,1,405,678.34q-7.4,2.64-13.3,4.14a57.21,57.21,0,0,1-9.41,1.76l-3.76.25-3.76,25.59A96.44,96.44,0,0,0,353,713q-12.3,2.88-19.58,5.39l-7.52,2.76q9-22.83,15.93-65.24t9.41-73.27l2.26-30.86q12.28-.75,23.33-2.26T392.87,547l5-.75Zm15.93,77.79a43.86,43.86,0,0,0,5.4-16.82q1.25-9.78-1-16.43t-6.14-9.16a28.54,28.54,0,0,0-8.16-3.64,22.28,22.28,0,0,0-7.28-.88l-3,.25-8.78,64c.83,0,1.92,0,3.26-.13a36.7,36.7,0,0,0,7.4-1.88,33.72,33.72,0,0,0,9.79-5Q408.42,639.32,412.57,632.3Z"/><path class="cls-7" d="M526.87,545.73q12.54,0,21.83,3.89t14.17,10a46.12,46.12,0,0,1,7.53,13.68,53.37,53.37,0,0,1,3,15,126.79,126.79,0,0,1,0,13.8,79.25,79.25,0,0,1-1.13,10.17c-.5,2.59-.83,3.89-1,3.89L496.5,629.79q1.26,10.53,7.41,16.05a22.14,22.14,0,0,0,14.17,5.9,89.33,89.33,0,0,0,15.81-.63,57.28,57.28,0,0,0,13.05-3l5.52-1.75,8.28,29.35A150,150,0,0,1,528,685.37q-14.94,2.39-25,.75a51.1,51.1,0,0,1-18.07-6.4,47,47,0,0,1-12.54-10.29,56.05,56.05,0,0,1-7.78-12.8,62.59,62.59,0,0,1-4.52-39.89q1.75-8.54,4.27-16.69a110.35,110.35,0,0,1,7.9-18.44,83.55,83.55,0,0,1,12.3-17.82A57.32,57.32,0,0,1,502.53,551,55.66,55.66,0,0,1,526.87,545.73ZM496,609l51.44-10a13.17,13.17,0,0,1-1.25-1.5,33.92,33.92,0,0,0-3.26-3.39,43.77,43.77,0,0,0-5.27-4.27,27.55,27.55,0,0,0-7.16-3.26,29.47,29.47,0,0,0-8.9-1.38,17.83,17.83,0,0,0-8.79,2.39,24.79,24.79,0,0,0-7.15,5.89,75.91,75.91,0,0,0-5.14,7,64.17,64.17,0,0,0-3.51,6Z"/><path class="cls-7" d="M673.66,548.24q4.26,4.26,8.78,14.55a192.6,192.6,0,0,1,7.78,21,143.44,143.44,0,0,1,4.52,18.44l-33.88,8c-.34-5.18-1.67-9.44-4-12.79a17.47,17.47,0,0,0-8.4-6.78,26.85,26.85,0,0,0-9.79-1.63,32.54,32.54,0,0,0-9.41,1.63L617,680.72,568,687q7.77-19.57,13.05-52.57t6.77-56.33L589.35,555l46.17-8.28-2,14a77.72,77.72,0,0,1,23-12.67Q668.14,544.22,673.66,548.24Z"/><path class="cls-8" d="M819.94,616.49l-4.27,59.72a162.15,162.15,0,0,0-25.59,3.13A153.94,153.94,0,0,0,770,684.49L763.23,687q7-23.84,13.55-64.49t9.79-69.76l3-28.85,5.39-1.38q3.39-.88,13.18-3.14t19.07-3.64q9.27-1.38,21.07-2.89A110.84,110.84,0,0,1,869.5,512a107.74,107.74,0,0,1,17.44,2.51q8,1.88,11.79,7.15t2.26,13.3a82.62,82.62,0,0,1-8.53,24.59,70.24,70.24,0,0,1-14.31,18.57A112.92,112.92,0,0,1,862,590.52a107.26,107.26,0,0,1-16.69,8.4l34.88,71L837,686.49Zm4.27-62.73-3,30.11c.51-.17,1.22-.42,2.14-.76s2.63-1,5.14-2,4.89-2,7.15-3,4.81-2.3,7.66-3.89a63.48,63.48,0,0,0,7.4-4.77,31.2,31.2,0,0,0,5.39-5.15,10.17,10.17,0,0,0,2.51-5.52q.51-5.76-8-7a50.24,50.24,0,0,0-17.31.5Z"/><path class="cls-8" d="M968,549.24q13.54,6,21.45,20.2a65,65,0,0,1,8,31.74q.13,17.57-7.15,36.64-11.3,27.84-33.87,41.27t-43.16,4.39q-13.56-5.76-21.46-19.94a65.13,65.13,0,0,1-8-31.75q-.12-17.55,7.15-36.63,11.29-27.85,33.88-41.28T968,549.24ZM966.48,631a45.91,45.91,0,0,0,3.14-27.35Q967,589.64,957.2,585.37t-20.7,2.14q-10.92,6.39-16.44,19.94a45.93,45.93,0,0,0-3.13,27.35q2.63,14.07,12.42,18.32,10,4.27,20.82-2.26T966.48,631Z"/><path class="cls-8" d="M1093,648.35v.26l8.28,29.35q-12.8,7.78-33.75,9.29t-34-3.51a49.14,49.14,0,0,1-24.72-20,58.28,58.28,0,0,1-9.28-31.87q-.13-17.7,8.15-36.76,13.05-27.85,39.27-41.15t50.06-4.52a63,63,0,0,1,12.42,6.15,58.58,58.58,0,0,1,10.42,7.9l-28.61,27.6a34.9,34.9,0,0,0-31.74-5.39q-11.16,4.39-17.44,17.19a45.67,45.67,0,0,0-3.76,28.85q2.76,15.57,13.8,19.58,6.53,2.76,20.57,2T1093,648.35Z"/><path class="cls-8" d="M1239.49,564.55,1181,610l41.41,60L1179,686.75l-18.56-60.48-5.27,54.45q-4.28-1-16.56.63T1116.28,685l-10,1.76q7.53-18.82,14.3-60.73t10-74.52l3-32.62a132.09,132.09,0,0,0,21-1.76q10.92-1.75,16.94-3.26l5.77-1.76c-.5,1.34-1,2.76-1.38,4.27s-.88,3.35-1.38,5.52-.92,4.14-1.26,5.89-.75,4.19-1.25,7.28-.88,5.61-1.13,7.53-.63,4.77-1.13,8.53-.88,6.57-1.13,8.41-.67,5-1.25,9.41-1,7.49-1.38,9.16a137.65,137.65,0,0,0,22.83-15.56q10.79-9,14.56-16.31Z"/><path class="cls-9" d="M249.21,887a9.28,9.28,0,0,1,1.63.76,41.19,41.19,0,0,0,4,1.75q3.13,1.26,6.14,2.26c2,.67,4.43,1.38,7.28,2.13a62.88,62.88,0,0,0,8,1.63,41.38,41.38,0,0,0,8,.26,25.08,25.08,0,0,0,7.53-1.51,18.55,18.55,0,0,0,6.15-4,20.77,20.77,0,0,0,4.64-6.78A10.06,10.06,0,0,0,300.53,873a32.13,32.13,0,0,0-11.8-8,139.94,139.94,0,0,1-16.18-8.28,70.56,70.56,0,0,1-14.81-11.42q-6.27-6.39-7.9-17.44t4.39-26.34a43.56,43.56,0,0,1,12.29-16.94A65.47,65.47,0,0,1,285.6,773a160.09,160.09,0,0,1,22.45-6.9,157.57,157.57,0,0,1,23.09-3.64q11.16-.88,20.2-1.26t14.3-.12l5.52.5Q356.36,795.18,353.6,814q-1.52-1.25-4-3a91.44,91.44,0,0,0-9.78-5.39,74.93,74.93,0,0,0-13.81-5.4,35.09,35.09,0,0,0-14.3-.62,21.86,21.86,0,0,0-13.05,6.65q-5.52,5.78-6.4,10.66a10.45,10.45,0,0,0,2.51,8.91,43.2,43.2,0,0,0,7.28,6.9c2.59,1.92,6.11,4.23,10.54,6.9s7.65,4.77,9.66,6.27q9.78,7.78,17.82,22.08,16.56,30.62-7.53,48.68Q305.67,937.2,229.39,937.2q1.76-3.26,4.64-8.66t8.41-18.69Q247.95,896.55,249.21,887Z"/><path class="cls-9" d="M449.7,898.56v.25L458,928.17q-12.8,7.77-33.75,9.28t-34-3.51a49.14,49.14,0,0,1-24.72-20,58.28,58.28,0,0,1-9.28-31.87q-.14-17.68,8.16-36.76,13-27.86,39.27-41.15t50.06-4.52a63.56,63.56,0,0,1,12.42,6.15,58.84,58.84,0,0,1,10.41,7.9l-28.61,27.61A34.93,34.93,0,0,0,416.2,836q-11.16,4.39-17.44,17.19A45.76,45.76,0,0,0,395,882q2.76,15.56,13.8,19.57,6.52,2.76,20.58,2T449.7,898.56Z"/><path class="cls-9" d="M463.5,937q7.78-22.34,13.3-56.08t7.28-56.34l1.5-22.58,42.16-5L510.42,928.42ZM534,771.59a8.66,8.66,0,0,1-2,7.27,23.21,23.21,0,0,1-7.9,6.15,38.1,38.1,0,0,1-11.67,3.64A36.21,36.21,0,0,1,495,787.52q-7.65-2.62-8.53-8.15T492,768.83q6.4-5,16.18-6.53a35.17,35.17,0,0,1,17.44,1.26Q533.27,766.32,534,771.59Z"/><path class="cls-9" d="M583.69,835.07q-4.77,4.77-5.9,8.16a5.15,5.15,0,0,0,1.38,5.77,24.4,24.4,0,0,0,5.65,4q3.13,1.63,8.41,4.14a69.68,69.68,0,0,1,8.28,4.52q8.78,6.27,15.55,18.32,14.55,25.85-8.53,40.9Q583.69,937.2,517,937.2q1.75-2.76,4.64-7.4a176.8,176.8,0,0,0,8.28-16.19q5.39-11.54,7.15-19.32c1,.5,2.34,1.22,4,2.13a81.18,81.18,0,0,0,9.16,3.89,61.91,61.91,0,0,0,12.17,3.39,22.89,22.89,0,0,0,11.29-1.13,12.77,12.77,0,0,0,8-7.78,7.4,7.4,0,0,0-1.75-8.65,30.23,30.23,0,0,0-10.67-6.65,150.62,150.62,0,0,1-14.68-6.9A63.25,63.25,0,0,1,541,863.05a24.44,24.44,0,0,1-7.27-14.3q-1.51-8.91,4-21.21,4.51-10.78,18.07-17.81a96.32,96.32,0,0,1,29.48-9.54q15.93-2.51,31.24-3.51a231.75,231.75,0,0,1,25.6-.5l10.28.5q-15.56,30.62-20.07,44.92a36,36,0,0,0-3.51-2.39q-2.26-1.38-8.66-4.39A70.72,70.72,0,0,0,608,830.3a33.27,33.27,0,0,0-12.67-.62A20.24,20.24,0,0,0,583.69,835.07Z"/><path class="cls-9" d="M699.87,835.07q-4.77,4.77-5.9,8.16a5.15,5.15,0,0,0,1.38,5.77,24.19,24.19,0,0,0,5.65,4q3.13,1.63,8.4,4.14a68.11,68.11,0,0,1,8.28,4.52q8.79,6.27,15.56,18.32,14.55,25.85-8.53,40.9-24.84,16.3-91.59,16.31c1.18-1.84,2.72-4.31,4.65-7.4a176.8,176.8,0,0,0,8.28-16.19,100.49,100.49,0,0,0,7.15-19.32c1,.5,2.34,1.22,4,2.13a81.18,81.18,0,0,0,9.16,3.89,61.91,61.91,0,0,0,12.17,3.39,22.89,22.89,0,0,0,11.29-1.13,12.77,12.77,0,0,0,8-7.78,7.42,7.42,0,0,0-1.75-8.65,30.23,30.23,0,0,0-10.67-6.65,149.53,149.53,0,0,1-14.68-6.9,63,63,0,0,1-13.55-9.54,24.5,24.5,0,0,1-7.28-14.3q-1.5-8.91,4-21.21,4.51-10.78,18.07-17.81a96.23,96.23,0,0,1,29.48-9.54q15.93-2.51,31.24-3.51a231.57,231.57,0,0,1,25.59-.5l10.29.5q-15.55,30.62-20.07,44.92a36,36,0,0,0-3.51-2.39q-2.26-1.38-8.66-4.39a71.33,71.33,0,0,0-12.17-4.52,33.27,33.27,0,0,0-12.67-.62A20.21,20.21,0,0,0,699.87,835.07Z"/><path class="cls-9" d="M836.63,799.44q13.54,6,21.45,20.2a65.1,65.1,0,0,1,8,31.74q.12,17.57-7.15,36.64-11.3,27.86-33.88,41.28t-43.16,4.39q-13.54-5.78-21.45-20a65,65,0,0,1-8-31.74q-.13-17.57,7.15-36.64,11.29-27.86,33.88-41.28T836.63,799.44Zm-1.51,81.8a46,46,0,0,0,3.14-27.35q-2.64-14-12.42-18.32t-20.71,2.14q-10.9,6.39-16.43,19.95A46,46,0,0,0,785.56,885q2.64,14.06,12.42,18.31,10,4.27,20.83-2.25T835.12,881.24Z"/><path class="cls-9" d="M967.11,798.44q4.26,4.26,8.78,14.55a192.6,192.6,0,0,1,7.78,21,143.55,143.55,0,0,1,4.52,18.45l-33.88,8q-.51-7.78-4-12.8a17.6,17.6,0,0,0-8.41-6.78,26.82,26.82,0,0,0-9.79-1.63,32.54,32.54,0,0,0-9.41,1.63L910.4,930.93l-48.93,6.27q7.77-19.58,13-52.57t6.77-56.33l1.51-23.09L929,796.93,927,811a77.72,77.72,0,0,1,23-12.67Q961.59,794.43,967.11,798.44Z"/><path class="cls-9" d="M1043.13,835.07q-4.77,4.77-5.89,8.16a5.11,5.11,0,0,0,1.38,5.77,24.35,24.35,0,0,0,5.64,4q3.13,1.63,8.41,4.14a69.68,69.68,0,0,1,8.28,4.52q8.77,6.27,15.56,18.32,14.55,25.85-8.53,40.9-24.86,16.3-91.59,16.31,1.75-2.76,4.64-7.4a174.23,174.23,0,0,0,8.28-16.19,99.16,99.16,0,0,0,7.15-19.32c1,.5,2.34,1.22,4,2.13a80.34,80.34,0,0,0,9.16,3.89,61.83,61.83,0,0,0,12.16,3.39,22.93,22.93,0,0,0,11.3-1.13,12.81,12.81,0,0,0,8-7.78,7.42,7.42,0,0,0-1.76-8.65,30.27,30.27,0,0,0-10.66-6.65,148.46,148.46,0,0,1-14.68-6.9,62.75,62.75,0,0,1-13.55-9.54,24.45,24.45,0,0,1-7.28-14.3q-1.5-8.91,4-21.21,4.53-10.78,18.07-17.81a96.32,96.32,0,0,1,29.48-9.54q15.95-2.51,31.25-3.51a231.57,231.57,0,0,1,25.59-.5l10.29.5q-15.57,30.62-20.08,44.92a34.77,34.77,0,0,0-3.51-2.39q-2.25-1.38-8.66-4.39a70.72,70.72,0,0,0-12.17-4.52,33.27,33.27,0,0,0-12.67-.62A20.24,20.24,0,0,0,1043.13,835.07Z"/></g></g></g></svg>