<svg xmlns="http://www.w3.org/2000/svg" viewBox="0 0 171.34 393.68"><defs><style>.cls-1{isolation:isolate;}.cls-2,.cls-3{fill:#ffac8e;}.cls-3{opacity:0.5;mix-blend-mode:multiply;}</style></defs><g class="cls-1"><g id="Layer_2" data-name="Layer 2"><g id="Rock"><path class="cls-2" d="M162.26,52.74A16.61,16.61,0,0,0,147,39.7l-5.54-23.24c-3.15-13.25-17.88-20.4-30-14.2a41.71,41.71,0,0,0-11.74,9.4S79-6.48,57,21.59c-21-2.87-33.53,16.08-33.72,26C7.73,42.33-1.33,63.21.16,71.49c1.65,9.14,6.17,20.12,19.09,37.76,0,0,4.07,36.94,25.61,63.07L32.45,391.81l134.19,1.87-17.58-238.8c7.82-9.74,18.11-23.65,21.23-32.92C174.11,110.61,166.62,72.58,162.26,52.74Z"/><path class="cls-3" d="M142.63,38.28l-26.58,1.61-7.07-.3a107.77,107.77,0,0,1-3.53-12.75c-1.78-7.8-2.68-11-3.32-13.08a1.69,1.69,0,1,0-3.23,1c.6,1.91,1.49,5.11,3.28,12.83,1.39,6.06,2.48,9.75,3.17,11.86L94.41,39a7.33,7.33,0,0,0-7.62,6.55c-.72,7.27-.3,24.71,19.23,29.38,2.41.57,4.82,1,7.17,1.39l2.11,5.58a1.67,1.67,0,0,0,.35.55,1.63,1.63,0,0,0-.74,1.14,21,21,0,0,1-12.66,15.78,15.32,15.32,0,0,1-15.43-2C77.68,81.8,65,51.7,62.1,42.42A92.37,92.37,0,0,1,58.9,24a1.7,1.7,0,0,0-3.38.28c.37,4.29,1.27,12.45,3.38,19.13,2.9,9.3,15.53,39.31,24.76,55.19-2.38,5.76-8,10.25-14.89,11.79-5.9,1.31-11.49,0-15-3.35-1.37-2-15.07-22.59-19.88-33.55a202.06,202.06,0,0,1-8.51-24.7,1.68,1.68,0,1,0-3.23.92,202.4,202.4,0,0,0,8.66,25.12c4.59,10.52,16.65,28.81,19.63,33.27-2.06,2.53-6,4.52-10.42,5.21-5.74.9-11.19-.44-15-3.67a1.68,1.68,0,1,0-2.18,2.56,18.74,18.74,0,0,0,5.73,3.35,23.43,23.43,0,0,0,11.94,1.09c5.09-.79,9.58-3,12.21-6,4.29,3.33,10.42,4.47,16.72,3,7.5-1.66,13.75-6.4,16.8-12.6a18.8,18.8,0,0,0,17.2,1.41,24.31,24.31,0,0,0,14.27-16.06h0a17.09,17.09,0,0,0,8.93.45C122,90,107.64,100.34,100.36,113.94a1.71,1.71,0,0,0,.7,2.28,2.14,2.14,0,0,0,.22.1,1.69,1.69,0,0,0,2.06-.79c8.14-15.26,26.48-26.63,26.65-26.75a1.61,1.61,0,0,0,.8-1.32,61.1,61.1,0,0,1,2.7-12.23,1.67,1.67,0,0,0-.34-1.64,1.68,1.68,0,0,0-1.62-.55c-6.32,1.37-15.33.85-24.74-1.39C90.46,67.76,89.35,53.84,90.14,45.87a4,4,0,0,1,4.14-3.52l21.79.91,26.75-1.61a1.7,1.7,0,0,0,1.59-1.79A1.67,1.67,0,0,0,142.63,38.28ZM129.5,76.82c-.5,1.66-1.07,3.94-1.52,6.27-4.21,1.34-8.58.9-10.17-.42a1.68,1.68,0,0,0,.65-2L117,76.79A57.65,57.65,0,0,0,129.5,76.82Z"/></g></g></g></svg>