<svg xmlns="http://www.w3.org/2000/svg" viewBox="0 0 174.71 376.28"><defs><style>.cls-1{isolation:isolate;}.cls-2,.cls-3{fill:#ffac8e;}.cls-3,.cls-4{opacity:0.5;mix-blend-mode:multiply;}</style></defs><g class="cls-1"><g id="Layer_2" data-name="Layer 2"><g id="Scissors"><path class="cls-2" d="M173.65,222.94c-3.19,9.47-13.69,23.64-21.67,33.58l18,119.76-32.75-.46-104.1-1.44L45.73,274.31C23.77,247.66,19.64,210,19.64,210c-9.23-12.61-14.27-21.89-17-29.51a53.53,53.53,0,0,1-2.45-9,19.65,19.65,0,0,1,1.06-8.88v0c2.91-9.14,11-19.39,22.55-15.49a14.93,14.93,0,0,1,.28-2.56,22.82,22.82,0,0,1,1.49-4.78c.15-.35.3-.71.48-1a.75.75,0,0,1,.13-.25c4.6-9.62,15.86-20.07,32-17.86.83-1.07,1.24-63.52,2.7-93.38.28-5.59.69-11.33,2.94-16.55S70.58.77,75.92.09c5.79-.74,11,3.34,13.66,8.5s3.17,11.31,3.67,17.26c2.28,27.45,8.56,96.33,8.56,96.33.32-.35,3.46-63.79,7.79-89.12.94-5.49,2.07-11.14,5-15.92s8.27-8.5,13.48-7.87c5,.58,8.68,4.94,10.25,9.82s2.51,13.28,2.66,18.52c.61,21.94,4.75,89.28,5.44,100.26h0c0,1,.08,1.52.08,1.52a5.23,5.23,0,0,1,.68.07c7.47.69,16.63,5.72,18.2,12.88.17.81.35,1.67.55,2.53,3.24,15,7.72,38,8.56,53.77v0C174.91,214.79,174.68,219.85,173.65,222.94Z"/><path class="cls-3" d="M63.32,141.83A70.19,70.19,0,0,1,61,131.43c-.22-1.39-.4-2.76-.53-4-.22-1.67-.35-3.16-.45-4.35a1.73,1.73,0,0,0-3.44.28c.12,1.37.3,3.14.53,5.11.18,1.27.35,2.61.58,4a74.54,74.54,0,0,0,2.33,10.4c3,9.49,15.84,40.08,25.25,56.28-2.43,5.87-8.17,10.45-15.18,12-6,1.34-11.72.05-15.28-3.42-1.37-2.08-15.36-23-20.27-34.21a208.59,208.59,0,0,1-8.68-25.18,1.71,1.71,0,0,0-2.1-1.19,1.73,1.73,0,0,0-1.19,2.13,209.43,209.43,0,0,0,8.83,25.6c4.68,10.71,17,29.38,20,33.94-2.1,2.55-6.09,4.6-10.62,5.31-5.85.91-11.42-.45-15.26-3.77a1.73,1.73,0,0,0-2.43.2,1.7,1.7,0,0,0,.2,2.41,19,19,0,0,0,5.85,3.44,23.77,23.77,0,0,0,12.17,1.11c5.19-.81,9.77-3.11,12.45-6.15,4.4,3.39,10.63,4.56,17.08,3.12,7.62-1.7,14-6.53,17.1-12.86a6.76,6.76,0,0,0,.56-3.79C79.21,182,66.28,151.3,63.32,141.83Z"/><path class="cls-3" d="M143.41,137.86l-2.61.15-20,1.24-7.21-.3-3.7-.16-11.13-.45a7.49,7.49,0,0,0-7.8,6.68c-.73,7.41-.3,25.2,19.61,30,2.48.58,4.91,1,7.32,1.42l3.84.48a59.92,59.92,0,0,0,12.78,0c-.5,1.7-1.09,4-1.54,6.41l-1.29,3.87a101.63,101.63,0,0,0-11.29,8.73c-.07,0-.12.1-.2.15s0,0,0,0c-5.44,4.89-11.41,11.32-15.33,18.68a1.69,1.69,0,0,0-.08,1.47,1.62,1.62,0,0,0,.76.86l.23.07a1.68,1.68,0,0,0,2.1-.78A61.29,61.29,0,0,1,118.88,202,101.39,101.39,0,0,1,135,189.1a1.67,1.67,0,0,0,.81-1.34,11.31,11.31,0,0,1,.17-1.6,64.45,64.45,0,0,1,2.59-10.88,1.72,1.72,0,0,0-2-2.22c-6.48,1.39-15.66.86-25.25-1.42-16.65-4-17.79-18.19-17-26.29a4.07,4.07,0,0,1,4.23-3.59l22.21.93,20.35-1.26,2.51-.15a1.71,1.71,0,0,0-.23-3.42Z"/><g class="cls-4"><path class="cls-3" d="M63.81,127.7a1.49,1.49,0,0,1-.36-1A1.53,1.53,0,0,1,65,125.2c2,0,49.14.57,71.93,10.75a1.53,1.53,0,0,1-1.24,2.79c-22.22-9.92-70.23-10.49-70.72-10.49A1.5,1.5,0,0,1,63.81,127.7Z"/></g></g></g></g></svg>